<svg width="88" height="87" viewBox="0 0 88 87" fill="none" xmlns="http://www.w3.org/2000/svg">
<g clip-path="url(#clip0_14_49)">
<path d="M0 75.7821C0 81.9781 5.08028 87 11.3468 87H76.6528C82.9204 87 88 81.9774 88 75.7821V11.2182C88 5.02187 82.9197 0 76.6532 0H11.3472C5.07959 0 0 5.02255 0 11.2179V75.7818V75.7821Z" fill="#563D7C"/>
<path d="M36.4919 38.4832V26.1629H47.4613C48.5063 26.1629 49.5135 26.2489 50.4836 26.4212C51.4536 26.5931 52.312 26.9003 53.0583 27.3431C53.8042 27.786 54.4013 28.4007 54.8492 29.1875C55.2968 29.9746 55.5209 30.9829 55.5209 32.2121C55.5209 34.4255 54.8492 36.0241 53.5058 37.0076C52.1628 37.9915 50.4464 38.4832 48.3568 38.4832H36.4919ZM24.7759 17.1621V69.8379H50.5956C52.9837 69.8379 55.3095 69.5429 57.5731 68.9526C59.8367 68.3623 61.8514 67.4525 63.6176 66.223C65.3834 64.9934 66.789 63.407 67.8337 61.4645C68.8787 59.5216 69.4008 57.2222 69.4008 54.5663C69.4008 51.2709 68.5923 48.4553 66.9757 46.1192C65.3587 43.7828 62.9084 42.1474 59.6249 41.2129C62.0129 40.0819 63.8166 38.6307 65.0355 36.8601C66.2541 35.0895 66.8636 32.8765 66.8636 30.2203C66.8636 27.7612 66.4532 25.6956 65.6323 24.0232C64.8114 22.3512 63.6547 21.0108 62.1621 20.0025C60.6699 18.9942 58.879 18.2686 56.7893 17.8262C54.7 17.3833 52.3866 17.1621 49.8493 17.1621H24.7759ZM36.4919 60.8371V46.3771H49.2523C51.7895 46.3771 53.8293 46.9548 55.3717 48.111C56.9138 49.2668 57.6851 51.1971 57.6851 53.9023C57.6851 55.2797 57.4486 56.4107 56.976 57.296C56.5033 58.1813 55.8691 58.8823 55.073 59.3986C54.2772 59.9151 53.3566 60.2839 52.312 60.5054C51.267 60.7263 50.1728 60.8371 49.0285 60.8371H36.4919Z" fill="white"/>
</g>
<defs>
<clipPath id="clip0_14_49">
<rect width="88" height="87" fill="white"/>
</clipPath>
</defs>
</svg>
